<?xml version="1.0" encoding="UTF-8" standalone="no"?>
<svg
   xmlns:dc="http://purl.org/dc/elements/1.1/"
   xmlns:cc="http://creativecommons.org/ns#"
   xmlns:rdf="http://www.w3.org/1999/02/22-rdf-syntax-ns#"
   xmlns:svg="http://www.w3.org/2000/svg"
   xmlns="http://www.w3.org/2000/svg"
   xmlns:sodipodi="http://sodipodi.sourceforge.net/DTD/sodipodi-0.dtd"
   xmlns:inkscape="http://www.inkscape.org/namespaces/inkscape"
   version="1.0"
   width="200"
   height="290"
   id="N"
   inkscape:version="0.48.0 r9654"
   sodipodi:docname="logo.svg">
  <metadata
     id="metadata9">
    <rdf:RDF>
      <cc:Work
         rdf:about="">
        <dc:format>image/svg+xml</dc:format>
        <dc:type
           rdf:resource="http://purl.org/dc/dcmitype/StillImage" />
        <dc:title></dc:title>
      </cc:Work>
    </rdf:RDF>
  </metadata>
  <defs
     id="defs7">
    <inkscape:perspective
       id="perspective7"
       inkscape:persp3d-origin="300 : 235 : 1"
       inkscape:vp_z="600 : 352.5 : 1"
       inkscape:vp_y="0 : 1000 : 0"
       inkscape:vp_x="0 : 352.5 : 1"
       sodipodi:type="inkscape:persp3d" />
  </defs>
  <sodipodi:namedview
     pagecolor="#ffffff"
     bordercolor="#666666"
     borderopacity="1"
     objecttolerance="10"
     gridtolerance="10"
     guidetolerance="10"
     inkscape:pageopacity="0"
     inkscape:pageshadow="2"
     inkscape:window-width="1280"
     inkscape:window-height="972"
     id="namedview5"
     showgrid="false"
     inkscape:zoom="10.182338"
     inkscape:cx="65.222695"
     inkscape:cy="64.218118"
     inkscape:window-x="-8"
     inkscape:window-y="-8"
     inkscape:window-maximized="1"
     inkscape:current-layer="N" />
  <path
     sodipodi:nodetypes="cscccccsssccccsscccssssssccssccccccsscccccccsssssssccsccccsssssccsssssssssssssccccssscccssssssssssssscccccccsssccssccsssscc"
     id="path1372"
     d="m 29.406372,163.41044 c 3.308701,-1.64011 5.886997,-0.0726 11.00403,-2.62501 3.085633,-1.5391 8.389532,-2.15083 24.680424,-7.18824 5.537112,-1.34446 10.725647,-4.14434 16.496588,-4.67789 4.522491,-0.44205 8.869782,-1.72353 13.302344,-2.58381 2.743856,-0.49939 9.221732,-2.73414 11.270862,-3.88822 5.59595,-1.45079 10.27489,-3.72313 15.46804,-5.79225 2.80349,-0.67045 19.51361,-14.34486 18.54588,-15.17669 -0.31389,-0.26982 -2.1009,0.0866 -4.31991,0.86166 -4.11588,1.43756 -5.11826,1.58366 -5.66335,0.82552 -0.39136,-0.54429 2.51967,-5.84439 3.36189,-6.12099 1.04457,-1.18553 1.84943,-2.73156 2.84052,-4.04563 3.25842,-4.44739 5.40547,-9.40824 7.7469,-14.251229 1.34038,-3.146711 5.79508,-3.853229 7.65545,-6.602163 0.20823,-0.563927 1.79325,-2.346768 3.52227,-3.961855 1.72902,-1.615076 2.9505,-3.849357 4.11758,-4.965044 1.99964,-1.911593 2.23909,-1.999088 4.15392,-1.518059 l 2.03195,0.510463 c 0.21749,1.393977 -0.3072,6.125252 1.88267,6.387738 0.61874,0 1.44892,-0.278436 1.84483,-0.618752 1.42307,-1.223211 1.88327,0.244116 1.24569,3.971748 -0.33941,1.984435 -0.89012,4.376723 -1.2238,5.316213 -0.53533,1.507289 -0.42909,5.46527 0.41077,15.30775 0.58589,6.86611 1.13613,10.14583 2.16269,12.89084 0.63634,1.7016 1.4195,3.80639 1.74032,4.67732 0.77908,2.11492 0.74389,6.77828 -0.0542,7.20233 -1.26524,0.36113 -1.95327,-1.20766 -3.12834,-0.95601 -0.1572,0.23117 -0.0355,2.50862 0.27078,5.06102 1.42517,11.8818 1.35338,14.69554 -0.37495,14.69554 -1.60123,0 -1.66186,2.23816 -0.26167,9.65842 0.36772,5.22441 -1.97184,1.43028 -3.83017,1.61994 -0.50313,0.43247 -0.67581,2.47951 -0.56569,6.70642 l 0.15849,6.08395 c -1.95697,2.08548 -3.7993,4.25889 -5.86983,6.26158 -1.27894,1.26375 -0.94641,3.15784 -1.04917,4.73279 -0.10044,1.55978 -0.60343,4.69226 -1.11764,6.96104 -1.32903,5.86364 -2.09833,9.34091 -2.85201,12.89084 -0.36126,1.7016 -1.47485,5.99424 -2.47462,9.53922 l -1.81776,6.44542 1.00985,5.3991 c 0.5554,2.96951 1.11772,5.49183 1.2496,5.60518 2.49608,0.63696 5.06476,0.91431 7.34341,2.0972 2.84413,1.42406 6.04923,1.87505 8.66897,3.67529 2.34173,1.73107 5.21179,2.70633 7.79696,4.13727 2.20671,1.25744 7.96565,9.27384 5.26949,9.27384 l -169.651715,0 c -4.3519214,0 -0.730215,-8.04877 -0.199318,-10.19549 0.33473,-1.35346 0.920488,-6.28943 1.301693,-10.96881 0.381194,-4.67937 0.951423,-8.97377 1.267161,-9.5431 0.315738,-0.56933 1.508294,-1.58539 2.65011,-2.25791 2.334796,-1.37516 0.609008,-3.2716 2.820259,-4.47046 2.838873,-1.53914 6.90458,-3.47266 7.215634,-3.49671 0.311054,-0.024 0.973207,-6.11547 1.16302,-6.37947 0.189823,-0.26401 0.590414,-2.1242 0.599493,-2.43142 0.0093,-0.3072 0.329076,-2.75623 0.566663,-3.92397 0.0373,-1.43 -1.189478,-2.50599 -1.189478,-2.77961 -0.324339,-1.7691 -1.937678,-1.98686 -1.771777,-3.81621 0.760052,-2.2934 -2.001513,-9.60733 -2.900933,-10.83177 0.325026,-1.33312 10.075626,11.8674 4.536614,20.98697 -1.424355,2.34512 -0.928962,3.14646 -2.424529,5.46604 -6.333513,9.82306 -17.5280509,22.82043 -19.4376904,9.94391 -0.421958,-2.84523 1.580625,-11.34493 1.774323,-17.05185 0.228478,-6.73139 -2.3147791,-17.47202 4.4684784,-27.29291 7.868023,-11.39144 9.362042,-11.62446 16.562075,-14.78103 z m 0.358663,89.63759 c 4.321922,-2.0481 4.603794,-2.10605 11.330748,-2.32941 6.358457,-0.21114 15.611255,-1.7586 19.49597,-3.26058 3.138998,-1.21365 6.465493,-2.10669 7.847289,-2.10669 1.466636,0 1.508989,0.0878 1.119505,2.32036 -0.367785,2.10813 -0.292428,2.32034 0.823999,2.32034 0.675846,0 1.988736,-0.25147 2.917524,-0.55882 0.928786,-0.30735 3.258546,-0.77894 5.177232,-1.04797 3.62849,-0.50874 5.809555,-1.35819 5.809555,-2.26257 0,-0.29013 -1.763411,-2.84471 -3.918695,-5.67685 -4.058437,-5.33298 -9.553008,-10.26125 -13.868148,-12.43883 -2.636264,-1.33036 -3.315837,-2.56588 -2.797238,-5.08572 0.175092,-0.85078 0.444365,-2.59106 0.598391,-3.86725 0.29813,-2.47033 0.456363,-2.20079 -4.815465,-8.20304 -2.250455,-2.56225 -3.992887,-3.38087 -3.992887,-1.87595 -2.303455,3.24116 -6.665363,4.94012 -9.121732,8.08771 -6.514807,6.71653 -11.609029,9.71298 -17.139119,13.85085 -4.131776,2.30499 -7.427492,5.90712 -8.432195,10.0793 -0.422695,1.97175 -0.931976,4.16508 -1.13174,4.87408 -0.486386,1.72624 -0.333088,2.28741 1.653643,6.05374 1.231447,2.3345 2.022009,3.22766 2.856886,3.22766 0.634864,0 3.148786,-0.94516 5.586477,-2.10036 z m 80.831975,-8.70714 c 2.91735,-0.72865 4.98024,-2.86806 7.86939,-3.63256 2.09103,-0.3595 2.33044,-3.15552 0.57118,-6.6707 -1.34072,-2.67895 -1.29937,-6.11753 0.0909,-7.55743 0.32783,-0.33954 1.71023,-3.59954 3.07202,-7.24446 2.24618,-6.0121 2.50033,-7.24082 2.73836,-13.23997 0.29894,-7.53391 -0.12271,-10.95483 -1.40232,-11.3769 -0.48648,-0.16045 -2.24255,-0.0223 -3.90243,0.30706 -3.44537,0.6836 -4.10447,0.45654 -10.45237,-3.6008 -5.2944,-3.38398 -9.239133,-4.7197 -14.939892,-5.05873 -3.748093,-0.22291 -5.335024,-0.56796 -6.955572,-1.51241 -1.537998,-0.89634 -3.326355,-1.31767 -6.686238,-1.57523 -4.157554,-0.31871 -4.644877,-0.25813 -5.208674,0.64741 -0.817601,1.31314 -0.525018,2.99896 1.012984,5.83675 0.691667,1.2762 1.263494,2.99407 1.270741,3.8175 0.0136,1.54745 2.527479,6.65494 3.974492,8.07509 1.342886,2.71169 -0.58134,6.7216 -1.546757,9.46698 -0.525745,1.80737 -0.456432,3.50061 -1.255382,5.26205 -2.028044,4.09543 -1.506148,6.18557 2.172158,8.69928 2.671984,1.43307 4.187959,3.32677 5.70458,5.67198 1.062808,1.70159 2.583375,4.13796 3.379035,5.41414 0.825374,1.51544 1.512457,2.34211 3.331794,2.51927 0.41241,0.0385 1.905655,1.0201 3.318328,2.18132 2.243559,1.8442 2.816204,2.07135 4.526763,1.79551 1.52271,-0.24555 2.41161,-0.0283 3.99671,0.97695 2.2926,1.45388 2.52055,1.48807 5.32024,0.7979 z m 30.22795,-5.61525 c 0.86355,-0.74227 -0.51967,-4.40417 -2.3823,-6.30695 -1.60055,-1.63501 -1.70588,-3.36825 -0.42046,-6.91923 2.00872,-5.5492 3.68846,-11.65852 5.09424,-18.52813 0.55696,-2.1176 -0.11953,-4.93579 -2.64156,-5.82113 -0.36728,0.10524 -1.05833,1.33423 -1.53568,2.73108 -0.81995,2.39954 -4.18961,10.98982 -6.76078,17.2353 -0.64214,1.55979 -1.71376,4.79055 -2.38138,7.17946 -1.20483,4.3114 -1.18453,5.59945 0.15812,10.02273 0.5808,1.91344 0.67871,1.97572 2.51284,1.59838 2.62644,-0.80731 5.90837,0.0743 8.35696,-1.19151 z"
     style="fill:#666661;fill-opacity:1"
     inkscape:connector-curvature="0" />
  <path
     d="m 123.21862,164.47488 a 48.475524,43.392058 0 0 1 -96.951039,0 48.475524,43.392058 0 1 1 96.951039,0 z"
     id="path3668"
     style="fill:none;stroke:#000000;stroke-width:6.14871931"
     inkscape:connector-curvature="0" />
  <path
     d="m 112.29643,87.559587 c 0,0 -40.324146,117.256643 -40.324146,117.256643 0,0 -3.070856,-83.38269 -3.070856,-83.38269 0,0 -45.155881,96.0648 -45.155881,96.0648 M 91.366283,111.40526 112.29643,87.559587 c 0,0 1.2284,31.371663 1.2284,31.371663"
     id="path3720"
     style="fill:none;stroke:#000000;stroke-width:6.24762344;stroke-linecap:round;stroke-linejoin:round"
     inkscape:connector-curvature="0" />
  <path
     style="font-size:22.60000151999999900px;font-style:normal;font-variant:normal;font-weight:normal;font-stretch:normal;text-align:start;line-height:125%;letter-spacing:0px;word-spacing:0px;writing-mode:lr-tb;text-anchor:start;fill:#000000;fill-opacity:1;stroke:none;font-family:Neuropol X Free;-inkscape-font-specification:Neuropol X Free"
     d="M 27.71875 232.5 C 27.415917 232.50002 27.132521 232.61772 26.875 232.8125 C 26.617477 233.00731 26.468749 233.24791 26.46875 233.5625 C 26.468749 233.7125 26.501197 233.84896 26.53125 233.96875 L 32.6875 247.40625 C 32.83914 247.73549 33.047342 247.96747 33.3125 248.125 C 33.577643 248.28253 33.869404 248.34375 34.1875 248.34375 C 34.520837 248.34375 34.82859 248.28253 35.09375 248.125 C 35.358891 247.96747 35.535108 247.75317 35.65625 247.46875 L 40.96875 235.4375 L 46.09375 247.40625 C 46.229657 247.72085 46.438322 247.96747 46.71875 248.125 C 46.999137 248.28253 47.274905 248.34375 47.5625 248.34375 C 47.881029 248.34375 48.188551 248.28985 48.46875 248.125 C 48.748904 247.96015 48.957337 247.70469 49.09375 247.375 L 55.28125 234 C 55.32653 233.83494 55.343721 233.68232 55.34375 233.5625 C 55.343721 233.41299 55.294544 233.29116 55.21875 233.15625 C 55.142897 233.02137 55.050975 232.9026 54.9375 232.8125 C 54.823967 232.72243 54.682637 232.65367 54.53125 232.59375 C 54.379806 232.53386 54.261361 232.50002 54.125 232.5 C 53.897502 232.50002 53.681671 232.54378 53.5 232.65625 C 53.318274 232.76875 53.184803 232.94638 53.09375 233.15625 L 47.6875 245.75 L 42.375 233.46875 C 42.238594 233.16925 42.031358 232.93857 41.78125 232.78125 C 41.53111 232.62396 41.271566 232.56252 40.96875 232.5625 C 40.665904 232.56252 40.350522 232.64035 40.0625 232.8125 C 39.77445 232.98468 39.573876 233.24898 39.4375 233.59375 L 34.21875 245.75 L 28.6875 233.15625 C 28.611674 232.93129 28.462946 232.75366 28.28125 232.65625 C 28.099549 232.55887 27.930961 232.50002 27.71875 232.5 z M 80.0625 232.5 C 79.335241 232.50002 78.968748 232.82447 78.96875 233.46875 L 78.96875 247.46875 C 78.968748 248.11305 79.351696 248.4375 80.09375 248.4375 C 80.821003 248.4375 81.187496 248.11305 81.1875 247.46875 L 81.1875 233.46875 C 81.187496 232.82447 80.804548 232.50002 80.0625 232.5 z M 117.03125 232.5 C 116.30399 232.50002 115.9375 232.82447 115.9375 233.46875 L 115.9375 247.46875 C 115.9375 248.11305 116.32045 248.4375 117.0625 248.4375 C 117.78975 248.4375 118.15625 248.11305 118.15625 247.46875 L 118.15625 233.46875 C 118.15625 232.82447 117.7733 232.50002 117.03125 232.5 z M 90.875 232.6875 C 87.451386 232.68752 85.749998 233.89994 85.75 236.3125 L 85.75 247.46875 C 85.749998 248.11305 86.116953 248.4375 86.84375 248.4375 C 87.556208 248.4375 87.906246 248.11305 87.90625 247.46875 L 87.90625 238.125 L 92.25 238.125 C 92.795549 238.12501 93.093741 237.80163 93.09375 237.1875 C 93.093741 236.60312 92.795549 236.31251 92.25 236.3125 L 87.90625 236.3125 C 87.936298 235.06873 88.786025 234.43751 90.4375 234.4375 L 92.25 234.4375 C 92.810806 234.43751 93.093741 234.16307 93.09375 233.59375 C 93.093741 232.99428 92.794814 232.68752 92.21875 232.6875 L 90.875 232.6875 z M 157.09375 236.1875 C 156.83575 236.18751 156.58674 236.27396 156.375 236.46875 L 150.28125 241.0625 L 144.25 236.46875 C 144.14366 236.36405 144.01139 236.31121 143.875 236.28125 C 143.73861 236.25131 143.60587 236.21876 143.5 236.21875 C 143.21196 236.21876 142.96198 236.32892 142.75 236.53125 C 142.53802 236.7336 142.4375 236.98175 142.4375 237.28125 C 142.4375 237.53596 142.60342 237.79165 142.90625 238.03125 L 148.59375 242.3125 L 142.90625 246.6875 C 142.80037 246.77758 142.71681 246.85649 142.65625 246.96875 C 142.59568 247.08101 142.5625 247.1927 142.5625 247.3125 C 142.5625 247.58229 142.65442 247.85391 142.84375 248.09375 C 143.03308 248.33359 143.25847 248.4375 143.53125 248.4375 C 143.74346 248.4375 143.92731 248.36874 144.09375 248.21875 L 150.28125 243.59375 L 156.5 248.21875 C 156.69694 248.39846 156.91157 248.5 157.09375 248.5 C 157.22966 248.5 157.355 248.44999 157.46875 248.375 C 157.58247 248.30001 157.65913 248.22972 157.75 248.125 C 157.84083 248.02028 157.91556 247.8849 157.96875 247.75 C 158.0219 247.61511 158.06248 247.46249 158.0625 247.3125 C 158.06248 247.0578 157.9462 246.86721 157.71875 246.6875 L 152 242.3125 L 157.71875 238.03125 C 158.00677 237.80674 158.15623 237.55105 158.15625 237.28125 C 158.15623 237.01147 158.04832 236.76356 157.84375 236.53125 C 157.63915 236.29897 157.39657 236.18751 157.09375 236.1875 z M 64.40625 236.3125 C 60.467592 236.31251 58.499998 237.54415 58.5 240.03125 L 58.5 244.6875 C 58.499998 247.11471 60.450401 248.3125 64.34375 248.3125 L 68.8125 248.3125 C 72.630006 248.3125 74.531232 247.11471 74.53125 244.6875 L 74.53125 240.03125 C 74.531232 237.55879 72.630006 236.31251 68.8125 236.3125 L 64.40625 236.3125 z M 101.15625 236.3125 C 97.262901 236.31251 95.312498 237.47386 95.3125 239.78125 L 95.3125 251.03125 C 95.312498 251.69063 95.678991 252.03125 96.40625 252.03125 C 97.148298 252.03125 97.499996 251.69063 97.5 251.03125 L 97.5 248.3125 L 106 248.3125 C 109.66632 248.3125 111.49998 247.10007 111.5 244.6875 L 111.5 239.71875 C 111.49998 237.44109 109.46528 236.31251 105.375 236.3125 L 101.15625 236.3125 z M 128.6875 236.3125 C 124.62725 236.31251 122.59375 237.54263 122.59375 240 L 122.59375 244.59375 C 122.59375 247.06623 124.64444 248.3125 128.75 248.3125 L 130.625 248.3125 C 131.24591 248.3125 131.56249 248.02037 131.5625 247.40625 C 131.56249 246.80677 131.24591 246.5 130.625 246.5 L 128.1875 246.5 C 125.9299 246.5 124.8125 245.95417 124.8125 244.875 L 124.8125 243.40625 L 137.8125 243.40625 C 138.46392 243.40625 138.81248 243.04948 138.8125 242.375 L 138.8125 239.5 C 138.81248 237.37232 137.09584 236.31251 133.6875 236.3125 L 128.6875 236.3125 z M 63.3125 238.125 C 63.559425 238.10486 63.81155 238.125 64.09375 238.125 L 69.15625 238.125 C 71.231669 238.12501 72.249984 238.69006 72.25 239.84375 L 72.25 244.6875 C 72.249984 245.9011 71.231669 246.5 69.15625 246.5 L 64.09375 246.5 C 61.83615 246.5 60.718746 245.9011 60.71875 244.6875 L 60.71875 240.03125 C 60.718746 238.90374 61.584026 238.26595 63.3125 238.125 z M 100.09375 238.125 C 100.34067 238.1072 100.62405 238.125 100.90625 238.125 L 105.75 238.125 C 108.0982 238.12501 109.24998 238.67237 109.25 239.78125 L 109.25 244.71875 C 109.24998 245.90263 108.29877 246.5 106.375 246.5 L 97.5 246.5 L 97.5 239.8125 C 97.499996 238.81583 98.365276 238.24959 100.09375 238.125 z M 127.40625 238.125 C 127.65317 238.1072 127.9053 238.125 128.1875 238.125 L 134.125 238.125 C 135.82176 238.12501 136.65623 238.6396 136.65625 239.71875 L 136.65625 241.5 L 124.8125 241.5 L 124.8125 239.8125 C 124.8125 238.81583 125.67778 238.24959 127.40625 238.125 z "
     id="text2997" />
</svg>
