<?xml version="1.0" encoding="UTF-8" standalone="no"?>
<svg
   xmlns:dc="http://purl.org/dc/elements/1.1/"
   xmlns:cc="http://creativecommons.org/ns#"
   xmlns:rdf="http://www.w3.org/1999/02/22-rdf-syntax-ns#"
   xmlns:svg="http://www.w3.org/2000/svg"
   xmlns="http://www.w3.org/2000/svg"
   xmlns:sodipodi="http://sodipodi.sourceforge.net/DTD/sodipodi-0.dtd"
   xmlns:inkscape="http://www.inkscape.org/namespaces/inkscape"
   version="1.0"
   width="176.21736"
   height="175.4798"
   id="N"
   inkscape:version="0.91 r13725"
   sodipodi:docname="logo.svg">
  <metadata
     id="metadata9">
    <rdf:RDF>
      <cc:Work
         rdf:about="">
        <dc:format>image/svg+xml</dc:format>
        <dc:type
           rdf:resource="http://purl.org/dc/dcmitype/StillImage" />
        <dc:title></dc:title>
      </cc:Work>
    </rdf:RDF>
  </metadata>
  <defs
     id="defs7">
    <inkscape:perspective
       id="perspective7"
       inkscape:persp3d-origin="300 : 235 : 1"
       inkscape:vp_z="600 : 352.5 : 1"
       inkscape:vp_y="0 : 1000 : 0"
       inkscape:vp_x="0 : 352.5 : 1"
       sodipodi:type="inkscape:persp3d" />
  </defs>
  <sodipodi:namedview
     pagecolor="#ffffff"
     bordercolor="#666666"
     borderopacity="1"
     objecttolerance="10"
     gridtolerance="10"
     guidetolerance="10"
     inkscape:pageopacity="0"
     inkscape:pageshadow="2"
     inkscape:window-width="418"
     inkscape:window-height="1029"
     id="namedview5"
     showgrid="false"
     inkscape:zoom="2.5455845"
     inkscape:cx="105.46063"
     inkscape:cy="104.90293"
     inkscape:window-x="840"
     inkscape:window-y="0"
     inkscape:window-maximized="0"
     inkscape:current-layer="N"
     fit-margin-top="-0.3"
     fit-margin-left="0"
     fit-margin-right="0"
     fit-margin-bottom="0" />
  <path
     sodipodi:nodetypes="cscccccsssccccsscccssssssccssccccccsscccccccsssssssccsccccsssssccsssssssssssssccccssscccssssssssssssscccccccsssccssccsssscc"
     id="path1372"
     d="m 22.862979,81.655995 c 3.308701,-1.64011 5.886997,-0.0726 11.00403,-2.62501 3.085633,-1.5391 8.389532,-2.15083 24.680424,-7.18824 5.537112,-1.34446 10.725647,-4.14434 16.496588,-4.67789 4.522491,-0.44205 8.869782,-1.72353 13.302344,-2.58381 2.743856,-0.49939 9.221732,-2.73414 11.270862,-3.88822 5.595953,-1.45079 10.274893,-3.72313 15.468043,-5.79225 2.80349,-0.67045 19.51361,-14.34486 18.54588,-15.17669 -0.31389,-0.26982 -2.1009,0.0866 -4.31991,0.86166 -4.11588,1.43756 -5.11826,1.58366 -5.66335,0.82552 -0.39136,-0.54429 2.51967,-5.84439 3.36189,-6.12099 1.04457,-1.18553 1.84943,-2.73156 2.84052,-4.04563 3.25842,-4.44739 5.40547,-9.40824 7.7469,-14.251229 1.34038,-3.146711 5.79508,-3.853229 7.65545,-6.602163 0.20823,-0.5639267 1.79325,-2.3467677 3.52227,-3.9618547 1.72902,-1.615076 2.9505,-3.849357 4.11758,-4.965044 1.99964,-1.91159302 2.23909,-1.99908802 4.15392,-1.51805902 l 2.03195,0.510463 c 0.21749,1.39397702 -0.3072,6.12525202 1.88267,6.38773802 0.61874,0 1.44892,-0.278436 1.84483,-0.618752 1.42307,-1.223211 1.88327,0.244116 1.24569,3.9717477 -0.33941,1.984435 -0.89012,4.376723 -1.2238,5.316213 -0.53533,1.507289 -0.42909,5.46527 0.41077,15.30775 0.58589,6.86611 1.13613,10.14583 2.16269,12.89084 0.63634,1.7016 1.4195,3.80639 1.74032,4.67732 0.77908,2.11492 0.74389,6.77828 -0.0542,7.20233 -1.26524,0.36113 -1.95327,-1.20766 -3.12834,-0.95601 -0.1572,0.23117 -0.0355,2.50862 0.27078,5.06102 1.42517,11.8818 1.35338,14.69554 -0.37495,14.69554 -1.60123,0 -1.66186,2.23816 -0.26167,9.65842 0.36772,5.22441 -1.97184,1.43028 -3.83017,1.61994 -0.50313,0.43247 -0.67581,2.47951 -0.56569,6.70642 l 0.15849,6.08395 c -1.95697,2.085485 -3.7993,4.258895 -5.86983,6.261585 -1.27894,1.26375 -0.94641,3.15784 -1.04917,4.73279 -0.10044,1.55978 -0.60343,4.69226 -1.11764,6.96104 -1.32903,5.86364 -2.09833,9.34091 -2.85201,12.89084 -0.36126,1.7016 -1.47485,5.99424 -2.47462,9.53922 l -1.81776,6.44542 1.00985,5.3991 c 0.5554,2.96951 1.11772,5.49183 1.2496,5.60518 2.49608,0.63696 5.06476,0.91431 7.34341,2.0972 2.84413,1.42406 6.04923,1.87505 8.66897,3.67529 2.34173,1.73107 5.21179,2.70633 7.79696,4.13727 2.20671,1.25744 7.96565,9.27384 5.26949,9.27384 l -169.6517183,0 c -4.3519214,0 -0.730215,-8.04877 -0.199318,-10.19549 0.33473,-1.35346 0.920488,-6.28943 1.301693,-10.96881 0.381194,-4.67937 0.951423,-8.97377 1.267161,-9.5431 0.315738,-0.56933 1.508294,-1.58539 2.6501103,-2.25791 2.334796,-1.37516 0.609008,-3.2716 2.820259,-4.47046 2.838873,-1.53914 6.90458,-3.47266 7.215634,-3.49671 0.311054,-0.024 0.973207,-6.11547 1.16302,-6.37947 0.189823,-0.26401 0.590414,-2.1242 0.599493,-2.43142 0.0093,-0.3072 0.329076,-2.75623 0.566663,-3.92397 0.0373,-1.43 -1.189478,-2.50599 -1.189478,-2.77961 -0.324339,-1.7691 -1.937678,-1.98686 -1.771777,-3.81621 0.760052,-2.2934 -2.001513,-9.60733 -2.900933,-10.83177 0.325026,-1.33312 10.075626,11.8674 4.536614,20.98697 -1.424355,2.34512 -0.928962,3.14646 -2.424529,5.46604 -6.333513,9.82306 -17.5280512,22.82043 -19.43769069,9.94391 -0.421958,-2.84523 1.58062499,-11.34493 1.77432299,-17.05185 0.228478,-6.73139 -2.31477909,-17.47202 4.4684784,-27.292915 7.8680233,-11.39144 9.3620423,-11.62446 16.5620753,-14.78103 z m 0.358663,89.637595 c 4.321922,-2.0481 4.603794,-2.10605 11.330748,-2.32941 6.358457,-0.21114 15.611255,-1.7586 19.49597,-3.26058 3.138998,-1.21365 6.465493,-2.10669 7.847289,-2.10669 1.466636,0 1.508989,0.0878 1.119505,2.32036 -0.367785,2.10813 -0.292428,2.32034 0.823999,2.32034 0.675846,0 1.988736,-0.25147 2.917524,-0.55882 0.928786,-0.30735 3.258546,-0.77894 5.177232,-1.04797 3.62849,-0.50874 5.809555,-1.35819 5.809555,-2.26257 0,-0.29013 -1.763411,-2.84471 -3.918695,-5.67685 -4.058437,-5.33298 -9.553008,-10.26125 -13.868148,-12.43883 -2.636264,-1.33036 -3.315837,-2.56588 -2.797238,-5.08572 0.175092,-0.85078 0.444365,-2.59106 0.598391,-3.86725 0.29813,-2.47033 0.456363,-2.20079 -4.815465,-8.20304 -2.250455,-2.56225 -3.992887,-3.38087 -3.992887,-1.87595 -2.303455,3.24116 -6.665363,4.94012 -9.121732,8.08771 -6.514807,6.71653 -11.609029,9.71298 -17.139119,13.85085 -4.131776,2.30499 -7.427492,5.90712 -8.432195,10.0793 -0.422695,1.97175 -0.931976,4.16508 -1.13174,4.87408 -0.486386,1.72624 -0.333088,2.28741 1.653643,6.05374 1.231447,2.3345 2.022009,3.22766 2.856886,3.22766 0.634864,0 3.148786,-0.94516 5.586477,-2.10036 z m 80.831978,-8.70714 c 2.91735,-0.72865 4.98024,-2.86806 7.86939,-3.63256 2.09103,-0.3595 2.33044,-3.15552 0.57118,-6.6707 -1.34072,-2.67895 -1.29937,-6.11753 0.0909,-7.55743 0.32783,-0.33954 1.71023,-3.59954 3.07202,-7.24446 2.24618,-6.0121 2.50033,-7.24082 2.73836,-13.23997 0.29894,-7.53391 -0.12271,-10.95483 -1.40232,-11.3769 -0.48648,-0.16045 -2.24255,-0.0223 -3.90243,0.30706 -3.44537,0.6836 -4.10447,0.45654 -10.45237,-3.6008 -5.294403,-3.38398 -9.239136,-4.7197 -14.939895,-5.05873 -3.748093,-0.22291 -5.335024,-0.56796 -6.955572,-1.51241 -1.537998,-0.89634 -3.326355,-1.31767 -6.686238,-1.57523 -4.157554,-0.31871 -4.644877,-0.25813 -5.208674,0.64741 -0.817601,1.31314 -0.525018,2.99896 1.012984,5.83675 0.691667,1.2762 1.263494,2.99407 1.270741,3.8175 0.0136,1.54745 2.527479,6.65494 3.974492,8.07509 1.342886,2.71169 -0.58134,6.7216 -1.546757,9.46698 -0.525745,1.80737 -0.456432,3.50061 -1.255382,5.26205 -2.028044,4.09543 -1.506148,6.18557 2.172158,8.69928 2.671984,1.43307 4.187959,3.32677 5.70458,5.67198 1.062808,1.70159 2.583375,4.13796 3.379035,5.41414 0.825374,1.51544 1.512457,2.34211 3.331794,2.51927 0.41241,0.0385 1.905655,1.0201 3.318328,2.18132 2.243559,1.8442 2.816204,2.07135 4.526763,1.79551 1.52271,-0.24555 2.41161,-0.0283 3.99671,0.97695 2.292603,1.45388 2.520553,1.48807 5.320243,0.7979 z m 30.22795,-5.61525 c 0.86355,-0.74227 -0.51967,-4.40417 -2.3823,-6.30695 -1.60055,-1.63501 -1.70588,-3.36825 -0.42046,-6.91923 2.00872,-5.5492 3.68846,-11.65852 5.09424,-18.52813 0.55696,-2.1176 -0.11953,-4.93579 -2.64156,-5.82113 -0.36728,0.10524 -1.05833,1.33423 -1.53568,2.73108 -0.81995,2.39954 -4.18961,10.98982 -6.76078,17.2353 -0.64214,1.55979 -1.71376,4.79055 -2.38138,7.17946 -1.20483,4.3114 -1.18453,5.59945 0.15812,10.02273 0.5808,1.91344 0.67871,1.97572 2.51284,1.59838 2.62644,-0.80731 5.90837,0.0743 8.35696,-1.19151 z"
     style="fill:#666661;fill-opacity:1"
     inkscape:connector-curvature="0" />
  <path
     style="font-style:normal;font-variant:normal;font-weight:normal;font-stretch:normal;font-size:22.60000229px;line-height:125%;font-family:'Neuropol X Free';-inkscape-font-specification:'Neuropol X Free';text-align:start;letter-spacing:0px;word-spacing:0px;writing-mode:lr-tb;text-anchor:start;fill:#000000;fill-opacity:1;stroke:none"
     d="m 21.175357,150.74556 c -0.302833,2e-5 -0.586229,0.11772 -0.84375,0.3125 -0.257523,0.19481 -0.406251,0.43541 -0.40625,0.75 -1e-6,0.15 0.03245,0.28646 0.0625,0.40625 l 6.15625,13.4375 c 0.15164,0.32924 0.359842,0.56122 0.625,0.71875 0.265143,0.15753 0.556904,0.21875 0.875,0.21875 0.333337,0 0.64109,-0.0612 0.90625,-0.21875 0.265141,-0.15753 0.441358,-0.37183 0.5625,-0.65625 l 5.3125,-12.03125 5.125,11.96875 c 0.135907,0.3146 0.344572,0.56122 0.625,0.71875 0.280387,0.15753 0.556155,0.21875 0.84375,0.21875 0.318529,0 0.626051,-0.0539 0.90625,-0.21875 0.280154,-0.16485 0.488587,-0.42031 0.625,-0.75 l 6.1875,-13.375 c 0.04528,-0.16506 0.06247,-0.31768 0.0625,-0.4375 -2.9e-5,-0.14951 -0.04921,-0.27134 -0.125,-0.40625 -0.07585,-0.13488 -0.167775,-0.25365 -0.28125,-0.34375 -0.113533,-0.0901 -0.254863,-0.15883 -0.40625,-0.21875 -0.151444,-0.0599 -0.269889,-0.0937 -0.40625,-0.0937 -0.227498,2e-5 -0.443329,0.0438 -0.625,0.15625 -0.181726,0.1125 -0.315197,0.29013 -0.40625,0.5 l -5.40625,12.5937 -5.3125,-12.28125 c -0.136406,-0.2995 -0.343642,-0.53018 -0.59375,-0.6875 -0.25014,-0.15729 -0.509684,-0.21873 -0.8125,-0.21875 -0.302846,2e-5 -0.618228,0.0779 -0.90625,0.25 -0.28805,0.17218 -0.488624,0.43648 -0.625,0.78125 l -5.21875,12.15625 -5.53125,-12.59375 c -0.07583,-0.22496 -0.224554,-0.40259 -0.40625,-0.5 -0.181701,-0.0974 -0.350289,-0.15623 -0.5625,-0.15625 z m 52.34375,0 c -0.727259,2e-5 -1.093752,0.32447 -1.09375,0.96875 l 0,14 c -2e-6,0.6443 0.382946,0.96875 1.125,0.96875 0.727253,0 1.093746,-0.32445 1.09375,-0.96875 l 0,-14 c -4e-6,-0.64428 -0.382952,-0.96873 -1.125,-0.96875 z m 36.968753,0 c -0.72726,2e-5 -1.09375,0.32447 -1.09375,0.96875 l 0,14 c 0,0.6443 0.38295,0.96875 1.125,0.96875 0.72725,0 1.09375,-0.32445 1.09375,-0.96875 l 0,-14 c 0,-0.64428 -0.38295,-0.96873 -1.125,-0.96875 z m -26.156253,0.1875 c -3.423614,2e-5 -5.125002,1.21244 -5.125,3.625 l 0,11.15625 c -2e-6,0.6443 0.366953,0.96875 1.09375,0.96875 0.712458,0 1.062496,-0.32445 1.0625,-0.96875 l 0,-9.34375 4.34375,0 c 0.545549,10e-6 0.843741,-0.32337 0.84375,-0.9375 -9e-6,-0.58438 -0.298201,-0.87499 -0.84375,-0.875 l -4.34375,0 c 0.03005,-1.24377 0.879775,-1.87499 2.53125,-1.875 l 1.8125,0 c 0.560806,10e-6 0.843741,-0.27443 0.84375,-0.84375 -9e-6,-0.59947 -0.298936,-0.90623 -0.875,-0.90625 l -1.34375,0 z m 66.218753,3.5 c -0.258,10e-6 -0.50701,0.0865 -0.71875,0.28125 l -6.09375,4.59375 -6.03125,-4.59375 c -0.10634,-0.1047 -0.23861,-0.15754 -0.375,-0.1875 -0.13639,-0.0299 -0.26913,-0.0625 -0.375,-0.0625 -0.28804,10e-6 -0.53802,0.11017 -0.75,0.3125 -0.21198,0.20235 -0.3125,0.4505 -0.3125,0.75 0,0.25471 0.16592,0.5104 0.46875,0.75 l 5.6875,4.28125 -5.6875,4.375 c -0.10588,0.0901 -0.18944,0.16899 -0.25,0.28125 -0.0606,0.11226 -0.0937,0.22395 -0.0937,0.34375 0,0.26979 0.0919,0.54141 0.28125,0.78125 0.18933,0.23984 0.41472,0.34375 0.6875,0.34375 0.21221,0 0.39606,-0.0688 0.5625,-0.21875 l 6.1875,-4.625 6.21875,4.625 c 0.19694,0.17971 0.41157,0.28125 0.59375,0.28125 0.13591,0 0.26125,-0.05 0.375,-0.125 0.11372,-0.075 0.19038,-0.14528 0.28125,-0.25 0.0908,-0.10472 0.16556,-0.2401 0.21875,-0.375 0.0531,-0.13489 0.0937,-0.28751 0.0937,-0.4375 -2e-5,-0.2547 -0.1163,-0.44529 -0.34375,-0.625 l -5.71875,-4.375 5.71875,-4.28125 c 0.28802,-0.22451 0.43748,-0.4802 0.4375,-0.75 -2e-5,-0.26978 -0.10793,-0.51769 -0.3125,-0.75 -0.2046,-0.23228 -0.44718,-0.34374 -0.75,-0.34375 z m -92.687503,0.125 c -3.938658,10e-6 -5.906252,1.23165 -5.90625,3.71875 l 0,4.65625 c -2e-6,2.42721 1.950401,3.625 5.84375,3.625 l 4.46875,0 c 3.817506,0 5.718732,-1.19779 5.71875,-3.625 l 0,-4.65625 c -1.8e-5,-2.47246 -1.901244,-3.71874 -5.71875,-3.71875 l -4.40625,0 z m 36.75,0 c -3.893349,10e-6 -5.843752,1.16136 -5.84375,3.46875 l 0,11.25 c -2e-6,0.65938 0.366491,1 1.09375,1 0.742048,0 1.093746,-0.34062 1.09375,-1 l 0,-2.71875 8.5,0 c 3.666323,0 5.499983,-1.21243 5.500003,-3.625 l 0,-4.96875 c -2e-5,-2.27766 -2.03472,-3.40624 -6.125003,-3.40625 l -4.21875,0 z m 27.531253,0 c -4.06025,10e-6 -6.09375,1.23013 -6.09375,3.6875 l 0,4.59375 c 0,2.47248 2.05069,3.71875 6.15625,3.71875 l 1.875,0 c 0.62091,0 0.93749,-0.29213 0.9375,-0.90625 -1e-5,-0.59948 -0.31659,-0.90625 -0.9375,-0.90625 l -2.4375,0 c -2.2576,0 -3.375,-0.54583 -3.375,-1.625 l 0,-1.46875 13,0 c 0.65142,0 0.99998,-0.35677 1,-1.03125 l 0,-2.875 c -2e-5,-2.12768 -1.71666,-3.18749 -5.125,-3.1875 l -5,0 z m -65.375003,1.8125 c 0.246925,-0.0201 0.49905,0 0.78125,0 l 5.0625,0 c 2.075419,10e-6 3.093734,0.56506 3.09375,1.71875 l 0,4.84375 c -1.6e-5,1.2136 -1.018331,1.8125 -3.09375,1.8125 l -5.0625,0 c -2.2576,0 -3.375004,-0.5989 -3.375,-1.8125 l 0,-4.65625 c -4e-6,-1.12751 0.865276,-1.7653 2.59375,-1.90625 z m 36.78125,0 c 0.24692,-0.0178 0.5303,0 0.8125,0 l 4.84375,0 c 2.348203,10e-6 3.499983,0.54737 3.500003,1.65625 l 0,4.9375 c -2e-5,1.18388 -0.95123,1.78125 -2.875003,1.78125 l -8.875,0 0,-6.6875 c -4e-6,-0.99667 0.865276,-1.56291 2.59375,-1.6875 z m 27.312503,0 c 0.24692,-0.0178 0.49905,0 0.78125,0 l 5.9375,0 c 1.69676,10e-6 2.53123,0.5146 2.53125,1.59375 l 0,1.78125 -11.84375,0 0,-1.6875 c 0,-0.99667 0.86528,-1.56291 2.59375,-1.6875 z"
     id="text2997"
     inkscape:connector-curvature="0" />
</svg>
