<?xml version="1.0" encoding="UTF-8" standalone="no"?>
<!-- Created with Inkscape (http://www.inkscape.org/) -->

<svg
   xmlns:dc="http://purl.org/dc/elements/1.1/"
   xmlns:cc="http://creativecommons.org/ns#"
   xmlns:rdf="http://www.w3.org/1999/02/22-rdf-syntax-ns#"
   xmlns:svg="http://www.w3.org/2000/svg"
   xmlns="http://www.w3.org/2000/svg"
   xmlns:sodipodi="http://sodipodi.sourceforge.net/DTD/sodipodi-0.dtd"
   xmlns:inkscape="http://www.inkscape.org/namespaces/inkscape"
   width="192"
   height="80"
   viewBox="0 0 192.00001 80"
   id="svg4359"
   version="1.1"
   inkscape:version="0.91 r13725"
   sodipodi:docname="logo2.svg">
  <defs
     id="defs4361" />
  <sodipodi:namedview
     id="base"
     pagecolor="#ffffff"
     bordercolor="#666666"
     borderopacity="1.0"
     inkscape:pageopacity="0.0"
     inkscape:pageshadow="2"
     inkscape:zoom="5.6"
     inkscape:cx="94.621552"
     inkscape:cy="42.095329"
     inkscape:document-units="px"
     inkscape:current-layer="layer1"
     showgrid="false"
     units="in"
     fit-margin-top="-0.3"
     inkscape:window-width="1680"
     inkscape:window-height="1050"
     inkscape:window-x="0"
     inkscape:window-y="0"
     inkscape:window-maximized="0" />
  <metadata
     id="metadata4364">
    <rdf:RDF>
      <cc:Work
         rdf:about="">
        <dc:format>image/svg+xml</dc:format>
        <dc:type
           rdf:resource="http://purl.org/dc/dcmitype/StillImage" />
        <dc:title></dc:title>
      </cc:Work>
    </rdf:RDF>
  </metadata>
  <g
     inkscape:label="Calque 1"
     inkscape:groupmode="layer"
     id="layer1"
     transform="translate(0,-972.36223)">
    <path
       sodipodi:nodetypes="cscccccsssccccsscccssssssccssccccccsscccccccsssssssccsccccsssssccsssssssssssssccccssscccssssssssssssscccccccsssccssccsssscc"
       id="path1372"
       d="m 66.275089,1009.9954 c 1.487012,-0.7371 2.645773,-0.033 4.945495,-1.1798 1.38676,-0.6916 3.770472,-0.9666 11.09201,-3.2306 2.488532,-0.6043 4.820386,-1.8625 7.413994,-2.1023 2.032534,-0.1987 3.986312,-0.7746 5.978419,-1.1612 1.233162,-0.2245 4.144479,-1.2289 5.065413,-1.7475 2.51497,-0.65207 4.6178,-1.67327 6.95173,-2.60321 1.25996,-0.3013 8.76992,-6.44697 8.335,-6.8208 -0.14108,-0.12126 -0.94421,0.0391 -1.94149,0.38727 -1.84977,0.64605 -2.30027,0.71171 -2.54525,0.371 -0.17588,-0.24462 1.13241,-2.62662 1.51092,-2.75093 0.46946,-0.5328 0.83118,-1.22765 1.27661,-1.8182 1.46442,-1.99878 2.42935,-4.22832 3.48165,-6.40488 0.6024,-1.41421 2.60446,-1.73174 3.44055,-2.96718 0.0936,-0.25344 0.80594,-1.0547 1.583,-1.78055 0.77708,-0.72587 1.32604,-1.73002 1.85055,-2.23143 0.8987,-0.85912 1.0063,-0.89845 1.86687,-0.68225 l 0.91322,0.22941 c 0.0978,0.62649 -0.13806,2.75284 0.84612,2.87081 0.27808,0 0.65118,-0.12513 0.82911,-0.27808 0.63957,-0.54975 0.84639,0.10972 0.55985,1.78501 -0.15254,0.89185 -0.40005,1.967 -0.55,2.38924 -0.2406,0.67741 -0.19285,2.45623 0.1846,6.8797 0.26331,3.08581 0.51061,4.55978 0.97197,5.79346 0.28598,0.76475 0.63796,1.71069 0.78215,2.1021 0.35013,0.95053 0.33431,3.04637 -0.0243,3.23695 -0.56863,0.16223 -0.87785,-0.54278 -1.40595,-0.42966 -0.0707,0.10386 -0.016,1.12741 0.12169,2.27452 0.64051,5.3401 0.60825,6.6046 -0.1685,6.6046 -0.71964,0 -0.7469,1.0059 -0.11761,4.3407 0.16526,2.348 -0.8862,0.6428 -1.72138,0.7281 -0.22611,0.1944 -0.30372,1.1143 -0.25424,3.014 l 0.0713,2.7343 c -0.87952,0.9373 -1.7075,1.914 -2.63806,2.8141 -0.57479,0.568 -0.42533,1.4192 -0.47151,2.127 -0.0452,0.7011 -0.27121,2.1089 -0.50231,3.1285 -0.5973,2.6353 -0.94304,4.1981 -1.28176,5.7934 -0.16236,0.7648 -0.66283,2.6941 -1.11217,4.2872 l -0.81694,2.8968 0.45385,2.4265 c 0.24961,1.3346 0.50234,2.4682 0.56161,2.5191 1.12179,0.2863 2.27622,0.4109 3.30032,0.9426 1.27821,0.64 2.71867,0.8426 3.89605,1.6516 1.05243,0.7781 2.34232,1.2165 3.50415,1.8595 0.99175,0.5651 3.57997,4.1679 2.36825,4.1679 l -76.245832,0 c -1.955867,0 -0.328183,-3.6173 -0.08958,-4.5821 0.150437,-0.6082 0.413689,-2.8266 0.585016,-4.9297 0.171317,-2.103 0.427588,-4.033 0.569491,-4.2889 0.141903,-0.2558 0.677866,-0.7125 1.19103,-1.0148 1.049313,-0.6179 0.273705,-1.4703 1.267498,-2.0091 1.275856,-0.6917 3.1031,-1.5607 3.242896,-1.5715 0.139787,-0.01 0.437374,-2.7485 0.522683,-2.8671 0.08535,-0.1186 0.265348,-0.9547 0.269424,-1.0927 0.0049,-0.138 0.147898,-1.2389 0.254677,-1.7636 0.01673,-0.6427 -0.534585,-1.1262 -0.534585,-1.2493 -0.145762,-0.795 -0.870839,-0.8928 -0.79628,-1.715 0.341581,-1.0307 -0.899526,-4.3178 -1.303754,-4.8681 0.146076,-0.5991 4.528242,5.3335 2.038873,9.4321 -0.640143,1.054 -0.417499,1.4141 -1.089645,2.4566 -2.846445,4.4147 -7.877553,10.2561 -8.735802,4.469 -0.189637,-1.2787 0.71038,-5.0986 0.797432,-7.6635 0.102684,-3.0253 -1.040326,-7.8524 2.008248,-12.2662 3.536093,-5.1195 4.20754,-5.2242 7.443418,-6.6429 z m 0.161198,40.2854 c 1.942371,-0.9204 2.069055,-0.9465 5.092329,-1.0468 2.857647,-0.094 7.016095,-0.7904 8.761978,-1.4654 1.41075,-0.5455 2.905765,-0.9468 3.526771,-0.9468 0.659152,0 0.67819,0.039 0.503152,1.0427 -0.165302,0.9474 -0.131429,1.0429 0.370326,1.0429 0.30374,0 0.893776,-0.1131 1.311196,-0.2512 0.41743,-0.1381 1.464479,-0.35 2.326784,-0.4709 1.630736,-0.2287 2.610973,-0.6104 2.610973,-1.0169 0,-0.1304 -0.79253,-1.2785 -1.76117,-2.5513 -1.823967,-2.3968 -4.293372,-4.6117 -6.232701,-5.5904 -1.184798,-0.5978 -1.490222,-1.1531 -1.257142,-2.2856 0.07865,-0.3825 0.199697,-1.1645 0.268921,-1.7381 0.133988,-1.1102 0.205102,-0.989 -2.164189,-3.6866 -1.011413,-1.1516 -1.794512,-1.5194 -1.794512,-0.8432 -1.035227,1.4567 -2.995583,2.2203 -4.099541,3.635 -2.927914,3.0185 -5.217389,4.3652 -7.702761,6.2249 -1.856925,1.0358 -3.338099,2.6548 -3.789639,4.5298 -0.189971,0.8862 -0.418857,1.8719 -0.508635,2.1906 -0.218589,0.7758 -0.1497,1.028 0.743191,2.7207 0.553446,1.0491 0.908739,1.4505 1.283957,1.4505 0.285322,0 1.415141,-0.4246 2.510712,-0.9439 z m 36.327963,-3.9131 c 1.31113,-0.3276 2.23824,-1.2891 3.53671,-1.6327 0.93975,-0.1615 1.04735,-1.4181 0.25669,-2.998 -0.60255,-1.204 -0.58396,-2.7494 0.0408,-3.3964 0.14734,-0.1526 0.76862,-1.6177 1.38064,-3.2559 1.00949,-2.702 1.12372,-3.2542 1.23069,-5.9503 0.13435,-3.386 -0.0551,-4.9235 -0.63024,-5.1132 -0.21864,-0.072 -1.00785,-0.01 -1.75385,0.138 -1.54843,0.3073 -1.84465,0.2052 -4.69755,-1.6182 -2.379439,-1.521 -4.152304,-2.1211 -6.714372,-2.2736 -1.684498,-0.1001 -2.397704,-0.2552 -3.126009,-0.6797 -0.691224,-0.4028 -1.494966,-0.5922 -3.004974,-0.708 -1.86852,-0.1432 -2.087532,-0.1159 -2.34091,0.291 -0.367451,0.5902 -0.235953,1.3478 0.455261,2.6233 0.310847,0.5734 0.567838,1.3455 0.571106,1.7156 0.0069,0.6955 1.135912,2.991 1.786234,3.6292 0.603523,1.2187 -0.261273,3.0208 -0.695152,4.2547 -0.236288,0.8123 -0.205132,1.5733 -0.564205,2.3648 -0.911447,1.8407 -0.676901,2.78 0.97623,3.9097 1.200854,0.644 1.882175,1.4952 2.563781,2.5491 0.477656,0.7648 1.161032,1.8598 1.518629,2.4333 0.370936,0.6811 0.679736,1.0526 1.497391,1.1322 0.185345,0.017 0.856448,0.4585 1.491344,0.9804 1.008312,0.8288 1.265677,0.9309 2.034443,0.8069 0.684343,-0.1103 1.083837,-0.013 1.796223,0.4391 1.03035,0.6534 1.1328,0.6688 2.39106,0.3587 z m 13.58521,-2.5238 c 0.3881,-0.3335 -0.23355,-1.9792 -1.07067,-2.8345 -0.71932,-0.7347 -0.76666,-1.5137 -0.18896,-3.1097 0.90277,-2.4939 1.65769,-5.2396 2.28948,-8.327 0.25032,-0.9516 -0.0537,-2.2182 -1.18719,-2.6161 -0.16505,0.047 -0.47564,0.5996 -0.69017,1.2274 -0.3685,1.0784 -1.88291,4.9391 -3.03847,7.746 -0.28859,0.701 -0.77021,2.1529 -1.07024,3.2265 -0.54149,1.9378 -0.53236,2.5167 0.0711,4.5046 0.26102,0.8599 0.30503,0.8879 1.12933,0.7184 1.18039,-0.3629 2.65538,0.034 3.75583,-0.5356 z"
       style="fill:#666661;fill-opacity:1"
       inkscape:connector-curvature="0" />
    <path
       inkscape:connector-curvature="0"
       style="font-style:normal;font-variant:normal;font-weight:normal;font-stretch:normal;font-size:22.60000229px;line-height:125%;font-family:'Neuropol X Free';-inkscape-font-specification:'Neuropol X Free';text-align:start;letter-spacing:0px;word-spacing:0px;writing-mode:lr-tb;text-anchor:start;fill:#000000;fill-opacity:1;stroke:none"
       d="m 65.51663,1041.046 c -0.136105,0 -0.263468,0.052 -0.379205,0.1405 -0.115737,0.088 -0.182579,0.1957 -0.182579,0.3371 0,0.067 0.01457,0.1287 0.02806,0.1825 l 2.766776,6.0391 c 0.06812,0.1481 0.161719,0.2523 0.280882,0.3231 0.119173,0.071 0.250297,0.099 0.393253,0.099 0.149807,0 0.288127,-0.028 0.40729,-0.099 0.119163,-0.071 0.198359,-0.1671 0.252807,-0.2949 l 2.387571,-5.4072 2.303305,5.379 c 0.06103,0.1415 0.154858,0.2523 0.280892,0.3231 0.126015,0.071 0.249952,0.099 0.379205,0.099 0.143163,0 0.281365,-0.024 0.40729,-0.099 0.125907,-0.074 0.219583,-0.1889 0.280892,-0.337 l 2.780824,-6.0112 c 0.02038,-0.074 0.02806,-0.1427 0.02806,-0.1965 -10e-6,-0.067 -0.02205,-0.122 -0.05621,-0.1826 -0.03406,-0.061 -0.07541,-0.114 -0.126399,-0.1545 -0.05099,-0.04 -0.114546,-0.071 -0.182578,-0.098 -0.06802,-0.027 -0.12129,-0.042 -0.182589,-0.042 -0.102231,0 -0.199235,0.02 -0.280882,0.07 -0.08171,0.051 -0.141657,0.1305 -0.182579,0.2248 l -2.429704,5.6598 -2.387581,-5.5194 c -0.06133,-0.1346 -0.154444,-0.2383 -0.266844,-0.309 -0.11242,-0.071 -0.229072,-0.098 -0.365157,-0.098 -0.136115,0 -0.27785,0.035 -0.407291,0.1124 -0.12946,0.078 -0.219602,0.1962 -0.280892,0.3511 l -2.345438,5.4632 -2.485894,-5.6598 c -0.03406,-0.1011 -0.100922,-0.181 -0.182579,-0.2248 -0.08171,-0.043 -0.157427,-0.07 -0.252796,-0.07 z m 23.524621,0 c -0.326844,0 -0.491556,0.1458 -0.491556,0.4354 l 0,6.292 c 0,0.2895 0.172105,0.4353 0.505604,0.4353 0.326844,0 0.491555,-0.1458 0.491555,-0.4353 l 0,-6.292 c 0,-0.2896 -0.172104,-0.4354 -0.505603,-0.4354 z m 16.614709,0 c -0.32685,0 -0.49157,0.1458 -0.49157,0.4354 l 0,6.292 c 0,0.2895 0.17212,0.4353 0.50562,0.4353 0.32684,0 0.49155,-0.1458 0.49155,-0.4353 l 0,-6.292 c 0,-0.2896 -0.17211,-0.4354 -0.5056,-0.4354 z m -11.755293,0.085 c -1.538653,0 -2.303304,0.5449 -2.303304,1.6291 l 0,5.014 c 0,0.2895 0.164919,0.4353 0.491556,0.4353 0.320199,0 0.477518,-0.1458 0.477518,-0.4353 l 0,-4.1994 1.952194,0 c 0.245187,0 0.379195,-0.1453 0.379205,-0.4213 -1e-5,-0.2627 -0.134018,-0.3933 -0.379205,-0.3933 l -1.952194,0 c 0.01349,-0.559 0.395397,-0.8427 1.137603,-0.8427 l 0.814591,0 c 0.252039,0 0.379195,-0.1233 0.379205,-0.3792 -1e-5,-0.2693 -0.134353,-0.4072 -0.393253,-0.4072 l -0.603916,0 z m 29.760413,1.573 c -0.11596,0 -0.22787,0.039 -0.32303,0.1264 l -2.73869,2.0645 -2.7106,-2.0645 c -0.0477,-0.047 -0.10723,-0.071 -0.16854,-0.085 -0.0612,-0.014 -0.12094,-0.029 -0.16853,-0.029 -0.12945,0 -0.2418,0.049 -0.33706,0.1404 -0.0953,0.091 -0.14045,0.2024 -0.14045,0.3372 0,0.1144 0.0745,0.2294 0.21067,0.337 l 2.5561,1.9241 -2.5561,1.9662 c -0.0476,0.04 -0.0851,0.076 -0.11235,0.1265 -0.0273,0.05 -0.0421,0.1006 -0.0421,0.1544 0,0.1213 0.0413,0.2434 0.1264,0.3511 0.0851,0.1077 0.18638,0.1545 0.30898,0.1545 0.0954,0 0.178,-0.031 0.2528,-0.098 l 2.78082,-2.0786 2.79487,2.0786 c 0.0885,0.081 0.18497,0.1264 0.26684,0.1264 0.061,0 0.11742,-0.023 0.16854,-0.056 0.0511,-0.034 0.0855,-0.065 0.1264,-0.1124 0.0408,-0.047 0.0744,-0.1079 0.0983,-0.1685 0.0238,-0.06 0.0421,-0.1293 0.0421,-0.1966 -1e-5,-0.1146 -0.0523,-0.2001 -0.15448,-0.2809 l -2.57015,-1.9663 2.57015,-1.924 c 0.12944,-0.1009 0.19661,-0.2159 0.19661,-0.3371 0,-0.1213 -0.0485,-0.2327 -0.14043,-0.3371 -0.0919,-0.1044 -0.20098,-0.1545 -0.33707,-0.1545 z m -41.656144,0.056 c -1.770139,0 -2.654425,0.5535 -2.654425,1.6713 l 0,2.0926 c 0,1.0909 0.876559,1.6292 2.62634,1.6292 l 2.008366,0 c 1.715691,0 2.57015,-0.5383 2.57015,-1.6292 l 0,-2.0926 c 0,-1.1112 -0.854459,-1.6713 -2.57015,-1.6713 l -1.980281,0 z m 16.516392,0 c -1.749771,0 -2.62633,0.5219 -2.62633,1.5589 l 0,5.056 c 0,0.2963 0.164712,0.4495 0.491556,0.4495 0.333499,0 0.491556,-0.1532 0.491556,-0.4495 l 0,-1.2218 3.82012,0 c 1.64774,0 2.47184,-0.5449 2.47185,-1.6292 l 0,-2.2331 c -1e-5,-1.0236 -0.91446,-1.5308 -2.75274,-1.5308 l -1.896012,0 z m 12.373252,0 c -1.82479,0 -2.73869,0.5528 -2.73869,1.6572 l 0,2.0646 c 0,1.1111 0.92163,1.6713 2.76678,1.6713 l 0.84267,0 c 0.27905,0 0.42133,-0.1313 0.42133,-0.4073 0,-0.2694 -0.14228,-0.4073 -0.42133,-0.4073 l -1.09548,0 c -1.01461,0 -1.51681,-0.2453 -1.51681,-0.7304 l 0,-0.66 5.84253,0 c 0.29277,0 0.44942,-0.1603 0.44943,-0.4636 l 0,-1.292 c -1e-5,-0.9563 -0.77151,-1.4325 -2.3033,-1.4325 l -2.24713,0 z m -29.38121,0.8146 c 0.110973,-0.01 0.224289,0 0.35112,0 l 2.27521,0 c 0.93275,0 1.390402,0.2539 1.390422,0.7724 l 0,2.1769 c -2e-5,0.5454 -0.457672,0.8146 -1.390422,0.8146 l -2.27521,0 c -1.014623,0 -1.51682,-0.2692 -1.51681,-0.8146 l 0,-2.0926 c -1e-5,-0.5068 0.388872,-0.7934 1.16569,-0.8567 z m 16.53044,0 c 0.110973,-0.01 0.238336,0 0.365167,0 l 2.176893,0 c 1.05535,0 1.57299,0.2459 1.57299,0.7443 l 0,2.2191 c 0,0.532 -0.4275,0.8005 -1.29209,0.8005 l -3.98866,0 0,-3.0055 c 0,-0.448 0.388891,-0.7025 1.1657,-0.7584 z m 12.27494,0 c 0.11097,-0.01 0.22429,0 0.35111,0 l 2.66846,0 c 0.76258,0 1.13761,0.2312 1.13762,0.7162 l 0,0.8006 -5.32289,0 0,-0.7584 c 0,-0.448 0.38888,-0.7025 1.1657,-0.7584 z"
       id="text2997" />
  </g>
</svg>
