<?xml version="1.0" encoding="UTF-8" standalone="no"?>
<svg
   xmlns:dc="http://purl.org/dc/elements/1.1/"
   xmlns:cc="http://creativecommons.org/ns#"
   xmlns:rdf="http://www.w3.org/1999/02/22-rdf-syntax-ns#"
   xmlns:svg="http://www.w3.org/2000/svg"
   xmlns="http://www.w3.org/2000/svg"
   xmlns:sodipodi="http://sodipodi.sourceforge.net/DTD/sodipodi-0.dtd"
   xmlns:inkscape="http://www.inkscape.org/namespaces/inkscape"
   version="1.0"
   width="200"
   height="290"
   id="N"
   inkscape:version="0.48.0 r9654"
   sodipodi:docname="logo_link.svg">
  <metadata
     id="metadata9">
    <rdf:RDF>
      <cc:Work
         rdf:about="">
        <dc:format>image/svg+xml</dc:format>
        <dc:type
           rdf:resource="http://purl.org/dc/dcmitype/StillImage" />
        <dc:title />
      </cc:Work>
    </rdf:RDF>
  </metadata>
  <defs
     id="defs7">
    <inkscape:perspective
       id="perspective7"
       inkscape:persp3d-origin="300 : 235 : 1"
       inkscape:vp_z="600 : 352.5 : 1"
       inkscape:vp_y="0 : 1000 : 0"
       inkscape:vp_x="0 : 352.5 : 1"
       sodipodi:type="inkscape:persp3d" />
  </defs>
  <sodipodi:namedview
     pagecolor="#ffffff"
     bordercolor="#666666"
     borderopacity="1"
     objecttolerance="10"
     gridtolerance="10"
     guidetolerance="10"
     inkscape:pageopacity="0"
     inkscape:pageshadow="2"
     inkscape:window-width="1680"
     inkscape:window-height="998"
     id="namedview5"
     showgrid="false"
     inkscape:zoom="2.5455844"
     inkscape:cx="116.76445"
     inkscape:cy="135.23411"
     inkscape:window-x="-8"
     inkscape:window-y="-8"
     inkscape:window-maximized="1"
     inkscape:current-layer="N" />
  <path
     sodipodi:nodetypes="cscccccsssccccsscccssssssccssccccccsscccccccsssssssccsccccsssssccsssssssssssssccccssscccssssssssssssscccccccsssccssccsssscc"
     id="path1372"
     d="m 29.406372,163.41044 c 3.308701,-1.64011 5.886997,-0.0726 11.00403,-2.62501 3.085633,-1.5391 8.389532,-2.15083 24.680424,-7.18824 5.537112,-1.34446 10.725647,-4.14434 16.496588,-4.67789 4.522491,-0.44205 8.869782,-1.72353 13.302344,-2.58381 2.743856,-0.49939 9.221732,-2.73414 11.270862,-3.88822 5.59595,-1.45079 10.27489,-3.72313 15.46804,-5.79225 2.80349,-0.67045 19.51361,-14.34486 18.54588,-15.17669 -0.31389,-0.26982 -2.1009,0.0866 -4.31991,0.86166 -4.11588,1.43756 -5.11826,1.58366 -5.66335,0.82552 -0.39136,-0.54429 2.51967,-5.84439 3.36189,-6.12099 1.04457,-1.18553 1.84943,-2.73156 2.84052,-4.04563 3.25842,-4.44739 5.40547,-9.40824 7.7469,-14.251229 1.34038,-3.146711 5.79508,-3.853229 7.65545,-6.602163 0.20823,-0.563927 1.79325,-2.346768 3.52227,-3.961855 1.72902,-1.615076 2.9505,-3.849357 4.11758,-4.965044 1.99964,-1.911593 2.23909,-1.999088 4.15392,-1.518059 l 2.03195,0.510463 c 0.21749,1.393977 -0.3072,6.125252 1.88267,6.387738 0.61874,0 1.44892,-0.278436 1.84483,-0.618752 1.42307,-1.223211 1.88327,0.244116 1.24569,3.971748 -0.33941,1.984435 -0.89012,4.376723 -1.2238,5.316213 -0.53533,1.507289 -0.42909,5.46527 0.41077,15.30775 0.58589,6.86611 1.13613,10.14583 2.16269,12.89084 0.63634,1.7016 1.4195,3.80639 1.74032,4.67732 0.77908,2.11492 0.74389,6.77828 -0.0542,7.20233 -1.26524,0.36113 -1.95327,-1.20766 -3.12834,-0.95601 -0.1572,0.23117 -0.0355,2.50862 0.27078,5.06102 1.42517,11.8818 1.35338,14.69554 -0.37495,14.69554 -1.60123,0 -1.66186,2.23816 -0.26167,9.65842 0.36772,5.22441 -1.97184,1.43028 -3.83017,1.61994 -0.50313,0.43247 -0.67581,2.47951 -0.56569,6.70642 l 0.15849,6.08395 c -1.95697,2.08548 -3.7993,4.25889 -5.86983,6.26158 -1.27894,1.26375 -0.94641,3.15784 -1.04917,4.73279 -0.10044,1.55978 -0.60343,4.69226 -1.11764,6.96104 -1.32903,5.86364 -2.09833,9.34091 -2.85201,12.89084 -0.36126,1.7016 -1.47485,5.99424 -2.47462,9.53922 l -1.81776,6.44542 1.00985,5.3991 c 0.5554,2.96951 1.11772,5.49183 1.2496,5.60518 2.49608,0.63696 5.06476,0.91431 7.34341,2.0972 2.84413,1.42406 6.04923,1.87505 8.66897,3.67529 2.34173,1.73107 5.21179,2.70633 7.79696,4.13727 2.20671,1.25744 7.96565,9.27384 5.26949,9.27384 l -169.651715,0 c -4.3519214,0 -0.730215,-8.04877 -0.199318,-10.19549 0.33473,-1.35346 0.920488,-6.28943 1.301693,-10.96881 0.381194,-4.67937 0.951423,-8.97377 1.267161,-9.5431 0.315738,-0.56933 1.508294,-1.58539 2.65011,-2.25791 2.334796,-1.37516 0.609008,-3.2716 2.820259,-4.47046 2.838873,-1.53914 6.90458,-3.47266 7.215634,-3.49671 0.311054,-0.024 0.973207,-6.11547 1.16302,-6.37947 0.189823,-0.26401 0.590414,-2.1242 0.599493,-2.43142 0.0093,-0.3072 0.329076,-2.75623 0.566663,-3.92397 0.0373,-1.43 -1.189478,-2.50599 -1.189478,-2.77961 -0.324339,-1.7691 -1.937678,-1.98686 -1.771777,-3.81621 0.760052,-2.2934 -2.001513,-9.60733 -2.900933,-10.83177 0.325026,-1.33312 10.075626,11.8674 4.536614,20.98697 -1.424355,2.34512 -0.928962,3.14646 -2.424529,5.46604 -6.333513,9.82306 -17.5280509,22.82043 -19.4376904,9.94391 -0.421958,-2.84523 1.580625,-11.34493 1.774323,-17.05185 0.228478,-6.73139 -2.3147791,-17.47202 4.4684784,-27.29291 7.868023,-11.39144 9.362042,-11.62446 16.562075,-14.78103 z m 0.358663,89.63759 c 4.321922,-2.0481 4.603794,-2.10605 11.330748,-2.32941 6.358457,-0.21114 15.611255,-1.7586 19.49597,-3.26058 3.138998,-1.21365 6.465493,-2.10669 7.847289,-2.10669 1.466636,0 1.508989,0.0878 1.119505,2.32036 -0.367785,2.10813 -0.292428,2.32034 0.823999,2.32034 0.675846,0 1.988736,-0.25147 2.917524,-0.55882 0.928786,-0.30735 3.258546,-0.77894 5.177232,-1.04797 3.62849,-0.50874 5.809555,-1.35819 5.809555,-2.26257 0,-0.29013 -1.763411,-2.84471 -3.918695,-5.67685 -4.058437,-5.33298 -9.553008,-10.26125 -13.868148,-12.43883 -2.636264,-1.33036 -3.315837,-2.56588 -2.797238,-5.08572 0.175092,-0.85078 0.444365,-2.59106 0.598391,-3.86725 0.29813,-2.47033 0.456363,-2.20079 -4.815465,-8.20304 -2.250455,-2.56225 -3.992887,-3.38087 -3.992887,-1.87595 -2.303455,3.24116 -6.665363,4.94012 -9.121732,8.08771 -6.514807,6.71653 -11.609029,9.71298 -17.139119,13.85085 -4.131776,2.30499 -7.427492,5.90712 -8.432195,10.0793 -0.422695,1.97175 -0.931976,4.16508 -1.13174,4.87408 -0.486386,1.72624 -0.333088,2.28741 1.653643,6.05374 1.231447,2.3345 2.022009,3.22766 2.856886,3.22766 0.634864,0 3.148786,-0.94516 5.586477,-2.10036 z m 80.831975,-8.70714 c 2.91735,-0.72865 4.98024,-2.86806 7.86939,-3.63256 2.09103,-0.3595 2.33044,-3.15552 0.57118,-6.6707 -1.34072,-2.67895 -1.29937,-6.11753 0.0909,-7.55743 0.32783,-0.33954 1.71023,-3.59954 3.07202,-7.24446 2.24618,-6.0121 2.50033,-7.24082 2.73836,-13.23997 0.29894,-7.53391 -0.12271,-10.95483 -1.40232,-11.3769 -0.48648,-0.16045 -2.24255,-0.0223 -3.90243,0.30706 -3.44537,0.6836 -4.10447,0.45654 -10.45237,-3.6008 -5.2944,-3.38398 -9.239133,-4.7197 -14.939892,-5.05873 -3.748093,-0.22291 -5.335024,-0.56796 -6.955572,-1.51241 -1.537998,-0.89634 -3.326355,-1.31767 -6.686238,-1.57523 -4.157554,-0.31871 -4.644877,-0.25813 -5.208674,0.64741 -0.817601,1.31314 -0.525018,2.99896 1.012984,5.83675 0.691667,1.2762 1.263494,2.99407 1.270741,3.8175 0.0136,1.54745 2.527479,6.65494 3.974492,8.07509 1.342886,2.71169 -0.58134,6.7216 -1.546757,9.46698 -0.525745,1.80737 -0.456432,3.50061 -1.255382,5.26205 -2.028044,4.09543 -1.506148,6.18557 2.172158,8.69928 2.671984,1.43307 4.187959,3.32677 5.70458,5.67198 1.062808,1.70159 2.583375,4.13796 3.379035,5.41414 0.825374,1.51544 1.512457,2.34211 3.331794,2.51927 0.41241,0.0385 1.905655,1.0201 3.318328,2.18132 2.243559,1.8442 2.816204,2.07135 4.526763,1.79551 1.52271,-0.24555 2.41161,-0.0283 3.99671,0.97695 2.2926,1.45388 2.52055,1.48807 5.32024,0.7979 z m 30.22795,-5.61525 c 0.86355,-0.74227 -0.51967,-4.40417 -2.3823,-6.30695 -1.60055,-1.63501 -1.70588,-3.36825 -0.42046,-6.91923 2.00872,-5.5492 3.68846,-11.65852 5.09424,-18.52813 0.55696,-2.1176 -0.11953,-4.93579 -2.64156,-5.82113 -0.36728,0.10524 -1.05833,1.33423 -1.53568,2.73108 -0.81995,2.39954 -4.18961,10.98982 -6.76078,17.2353 -0.64214,1.55979 -1.71376,4.79055 -2.38138,7.17946 -1.20483,4.3114 -1.18453,5.59945 0.15812,10.02273 0.5808,1.91344 0.67871,1.97572 2.51284,1.59838 2.62644,-0.80731 5.90837,0.0743 8.35696,-1.19151 z"
     style="fill:#666661;fill-opacity:1"
     inkscape:connector-curvature="0" />
  <path
     d="m 113.00486,122.04847 a 48.475524,43.392058 0 0 1 -96.951043,0 48.475524,43.392058 0 1 1 96.951043,0 z"
     id="path3668"
     style="fill:none;stroke:#000000;stroke-width:6.14871931"
     inkscape:connector-curvature="0" />
  <path
     d="m 102.08267,45.13318 c 0,0 -40.32415,117.25664 -40.32415,117.25664 0,0 -3.070856,-83.382687 -3.070856,-83.382687 0,0 -45.155881,96.064797 -45.155881,96.064797 M 81.152519,68.978853 102.08267,45.13318 c 0,0 1.2284,31.371663 1.2284,31.371663"
     id="path3720"
     style="fill:none;stroke:#000000;stroke-width:6.24762344;stroke-linecap:round;stroke-linejoin:round"
     inkscape:connector-curvature="0" />
  <text
     xml:space="preserve"
     style="font-size:22.60000229px;font-style:normal;font-variant:normal;font-weight:normal;font-stretch:normal;text-align:start;line-height:125%;letter-spacing:0px;word-spacing:0px;writing-mode:lr-tb;text-anchor:start;fill:#000000;fill-opacity:1;stroke:none;font-family:Neuropol X Free;-inkscape-font-specification:Neuropol X Free"
     x="269.50659"
     y="214.92485"
     id="text2997"
     sodipodi:linespacing="125%"
     transform="scale(1.0055228,0.99450753)"><tspan
       sodipodi:role="line"
       x="269.50659"
       y="214.92485"
       id="tspan2999"><tspan
         x="269.50659"
         y="214.92485"
         id="tspan3001"
         style="font-size:22.60000229px;font-style:normal;font-variant:normal;font-weight:normal;font-stretch:normal;font-family:Neuropol X Free;-inkscape-font-specification:Neuropol X Free">Wolfplex</tspan></tspan></text>
  <text
     xml:space="preserve"
     style="font-size:18px;font-style:normal;font-variant:normal;font-weight:normal;font-stretch:normal;text-align:start;line-height:125%;letter-spacing:0px;word-spacing:0px;writing-mode:lr-tb;text-anchor:start;fill:#000000;fill-opacity:1;stroke:none;font-family:Neuropol;-inkscape-font-specification:Neuropol"
     x="10.213762"
     y="270.75101"
     id="text2988"
     sodipodi:linespacing="125%"><tspan
       sodipodi:role="line"
       x="10.213762"
       y="270.75101"
       id="tspan2992">www.wolfplex.org</tspan></text>
  <text
     xml:space="preserve"
     style="font-size:20px;font-style:normal;font-variant:normal;font-weight:normal;font-stretch:normal;text-align:start;line-height:125%;letter-spacing:0px;word-spacing:0px;writing-mode:lr-tb;text-anchor:start;fill:#000000;fill-opacity:1;stroke:none;font-family:Neuropol;-inkscape-font-specification:Neuropol"
     x="58.551464"
     y="232.4194"
     id="text2990"
     sodipodi:linespacing="125%"
     transform="matrix(0.99998731,-0.00503781,0.00503781,0.99998731,0,0)"><tspan
       sodipodi:role="line"
       id="tspan2993"
       x="58.551464"
       y="232.4194">@ Charleroi</tspan></text>
  <text
     xml:space="preserve"
     style="font-size:20px;font-style:normal;font-variant:normal;font-weight:normal;font-stretch:normal;text-align:start;line-height:125%;letter-spacing:0px;word-spacing:0px;writing-mode:lr-tb;text-anchor:start;fill:#000000;fill-opacity:1;stroke:none;font-family:Neuropol;-inkscape-font-specification:Neuropol"
     x="11.169188"
     y="203.04143"
     id="text2995"
     sodipodi:linespacing="125%"><tspan
       sodipodi:role="line"
       x="11.169188"
       y="203.04143"
       id="tspan3000">Hackerspace</tspan></text>
</svg>
